<?xml version="1.0" encoding="UTF-8" standalone="no"?>
<svg
   xmlns:dc="http://purl.org/dc/elements/1.1/"
   xmlns:cc="http://creativecommons.org/ns#"
   xmlns:rdf="http://www.w3.org/1999/02/22-rdf-syntax-ns#"
   xmlns:svg="http://www.w3.org/2000/svg"
   xmlns="http://www.w3.org/2000/svg"
   xmlns:sodipodi="http://sodipodi.sourceforge.net/DTD/sodipodi-0.dtd"
   xmlns:inkscape="http://www.inkscape.org/namespaces/inkscape"
   width="230.1875mm"
   height="41.010418mm"
   viewBox="0 0 230.1875 41.010418"
   version="1.1"
   id="svg8"
   inkscape:version="1.0.2 (e86c870879, 2021-01-15)"
   sodipodi:docname="logo-body.svg">
  <defs
     id="defs2" />
  <sodipodi:namedview
     id="base"
     pagecolor="#ffffff"
     bordercolor="#666666"
     borderopacity="1.0"
     inkscape:pageopacity="0.0"
     inkscape:pageshadow="2"
     inkscape:zoom="1.979899"
     inkscape:cx="155.62435"
     inkscape:cy="190"
     inkscape:document-units="mm"
     inkscape:current-layer="layer1"
     inkscape:document-rotation="0"
     showgrid="true"
     inkscape:window-width="1920"
     inkscape:window-height="1015"
     inkscape:window-x="0"
     inkscape:window-y="0"
     inkscape:window-maximized="1">
    <inkscape:grid
       type="xygrid"
       id="grid833"
       originx="-30.427084"
       originy="-97.895841" />
  </sodipodi:namedview>
  <metadata
     id="metadata5">
    <rdf:RDF>
      <cc:Work
         rdf:about="">
        <dc:format>image/svg+xml</dc:format>
        <dc:type
           rdf:resource="http://purl.org/dc/dcmitype/StillImage" />
        <dc:title />
      </cc:Work>
    </rdf:RDF>
  </metadata>
  <g
     inkscape:label="Layer 1"
     inkscape:groupmode="layer"
     id="layer1"
     transform="translate(-30.427084,-97.895834)">
    <path
       id="path839"
       style="fill:#fafafa;fill-opacity:1;stroke:none;stroke-width:0.999999px;stroke-linecap:butt;stroke-linejoin:miter;stroke-opacity:1"
       d="m 10.5,0.5 v 10 135 10 h 5 5 130 480 250 v -70 -85 h -860 -5 z m 135,10 h 725 v 15 70 50 h -155 -570 v -15 -15 z"
       transform="matrix(0.26458333,0,0,0.26458333,27.648959,97.763542)" />
    <path
       style="fill:#222222;fill-opacity:1;stroke:none;stroke-width:0.264583px;stroke-linecap:butt;stroke-linejoin:miter;stroke-opacity:1"
       d="m 38.364583,108.47917 h 3.96875 v 3.96875 3.96875 h 3.96875 5.291666 2.645834 v -7.9375 h 3.96875 v 11.90625 h -7.9375 v 3.96875 3.96875 h -3.96875 v -7.9375 h -7.9375 z"
       id="path835" />
    <g
       aria-label="HACKER NEWS"
       id="text835"
       style="font-style:normal;font-weight:normal;font-size:27.306px;line-height:1.25;font-family:sans-serif;fill:#fafafa;fill-opacity:1;stroke:none;stroke-width:0.68265"
       transform="translate(0.27590333,-0.13990733)">
      <path
         d="m 74.139402,128.11555 v -19.49648 h 2.45754 v 8.21911 h 7.645679 v -8.21911 h 2.45754 v 19.49648 h -2.45754 v -9.09289 h -7.645679 v 9.09289 z"
         style="font-style:normal;font-variant:normal;font-weight:normal;font-stretch:normal;font-family:monospace;-inkscape-font-specification:monospace;fill:#fafafa;fill-opacity:1;stroke-width:0.68265"
         id="path840" />
      <path
         d="m 89.15766,128.11555 6.334992,-19.5784 h 2.59407 l 6.362298,19.5784 h -2.51215 l -1.85681,-5.98001 h -6.580746 l -1.856808,5.98001 z m 6.8265,-13.98067 -1.802196,5.81618 h 5.215446 l -1.802196,-5.81618 q -0.13653,-0.4642 -0.382284,-1.31069 -0.245754,-0.84648 -0.436896,-1.69297 -0.163836,0.84649 -0.40959,1.69297 -0.245754,0.84649 -0.382284,1.31069 z"
         style="font-style:normal;font-variant:normal;font-weight:normal;font-stretch:normal;font-family:monospace;-inkscape-font-specification:monospace;fill:#fafafa;fill-opacity:1;stroke-width:0.68265"
         id="path842" />
      <path
         d="m 114.96179,128.38861 q -2.86713,0 -4.66933,-1.28338 -1.80219,-1.28338 -2.64868,-3.52247 -0.84649,-2.2664 -0.84649,-5.21545 0,-3.08558 0.95571,-5.32467 0.98302,-2.2664 2.81252,-3.46786 1.85681,-1.22877 4.50549,-1.22877 1.41991,0 2.64868,0.30037 1.25608,0.30036 2.29371,0.84648 l -0.92841,1.99334 q -0.84648,-0.4642 -1.93872,-0.70996 -1.06494,-0.24575 -2.07526,-0.24575 -2.78521,0 -4.28704,2.02064 -1.47452,2.02065 -1.47452,5.81618 0,3.6317 1.33799,5.70696 1.33799,2.04795 4.36896,2.04795 0.9284,0 1.99334,-0.19115 1.09224,-0.21844 2.15717,-0.65534 v 2.32101 q -1.09224,0.40959 -2.10256,0.60073 -0.98302,0.19114 -2.10256,0.19114 z"
         style="font-style:normal;font-variant:normal;font-weight:normal;font-stretch:normal;font-family:monospace;-inkscape-font-specification:monospace;fill:#fafafa;fill-opacity:1;stroke-width:0.68265"
         id="path844" />
      <path
         d="m 123.29007,128.11555 v -19.49648 h 2.45754 v 10.4855 q 0.46421,-0.73726 0.95571,-1.50183 0.49151,-0.76456 1.06494,-1.52913 l 5.57042,-7.45454 h 2.81252 l -6.52613,8.81984 6.77188,10.67664 h -2.81251 l -5.62504,-9.01098 -2.21179,2.53946 v 6.47152 z"
         style="font-style:normal;font-variant:normal;font-weight:normal;font-stretch:normal;font-family:monospace;-inkscape-font-specification:monospace;fill:#fafafa;fill-opacity:1;stroke-width:0.68265"
         id="path846" />
      <path
         d="m 140.35628,128.11555 v -19.49648 h 11.46852 v 2.18448 h -9.01098 v 6.03463 h 8.49217 v 2.18448 h -8.49217 v 6.90841 h 9.01098 v 2.18448 z"
         style="font-style:normal;font-variant:normal;font-weight:normal;font-stretch:normal;font-family:monospace;-inkscape-font-specification:monospace;fill:#fafafa;fill-opacity:1;stroke-width:0.68265"
         id="path848" />
      <path
         d="m 156.73984,128.11555 v -19.49648 h 4.56011 q 6.8538,0 6.8538,5.4612 0,1.52914 -0.49151,2.59407 -0.4915,1.03763 -1.33799,1.72028 -0.81918,0.65534 -1.85681,1.03763 l 5.21545,8.6833 h -2.7306 l -4.69663,-7.97335 h -3.05828 v 7.97335 z m 4.47819,-10.10322 q 2.40293,0 3.38594,-0.9284 1.01032,-0.95571 1.01032,-2.78521 0,-1.93873 -1.06493,-2.7306 -1.03763,-0.81918 -3.38594,-0.81918 h -1.96604 v 7.26339 z"
         style="font-style:normal;font-variant:normal;font-weight:normal;font-stretch:normal;font-family:monospace;-inkscape-font-specification:monospace;fill:#fafafa;fill-opacity:1;stroke-width:0.68265"
         id="path850" />
      <path
         d="m 188.82431,128.11555 v -19.49648 h 3.24941 l 7.09956,16.24707 h 0.0819 q -0.13653,-1.61105 -0.19114,-2.92174 -0.0546,-1.338 -0.0546,-3.00366 v -10.32167 h 2.37562 v 19.49648 h -2.97636 l -7.45453,-16.98433 h -0.10923 q 0.13653,1.52914 0.24576,3.05827 0.10922,1.52914 0.10922,3.05828 v 10.86778 z"
         style="font-style:normal;font-variant:normal;font-weight:normal;font-stretch:normal;font-family:monospace;-inkscape-font-specification:monospace;fill:#fafafa;fill-opacity:1;stroke-width:0.68265"
         id="path852" />
      <path
         d="m 205.89052,128.11555 v -19.49648 h 11.46852 v 2.18448 h -9.01098 v 6.03463 h 8.49216 v 2.18448 h -8.49216 v 6.90841 h 9.01098 v 2.18448 z"
         style="font-style:normal;font-variant:normal;font-weight:normal;font-stretch:normal;font-family:monospace;-inkscape-font-specification:monospace;fill:#fafafa;fill-opacity:1;stroke-width:0.68265"
         id="path854" />
      <path
         d="m 222.54714,128.11555 -2.18448,-19.49648 h 2.2664 q 0.21844,2.15717 0.40959,4.31435 0.21844,2.12987 0.40959,4.28704 0.10922,1.03763 0.19114,2.2664 0.10922,1.22877 0.19114,2.40293 0.0819,1.17415 0.13653,2.12986 0.0546,0.92841 0.0546,1.41992 h 0.0546 q 0.10923,-0.62804 0.30037,-1.61106 0.21845,-1.01032 0.4369,-2.07525 0.24575,-1.09224 0.43689,-1.93873 l 1.47453,-6.33499 h 2.34831 l 1.52914,6.3896 q 0.24575,0.92841 0.4642,1.99334 0.24575,1.06493 0.4369,2.02064 0.21844,0.92841 0.30036,1.55645 h 0.0546 q 0.0273,-0.65535 0.0819,-1.93873 0.0819,-1.28338 0.19114,-2.94905 0.10923,-1.66566 0.24576,-3.41325 0.19114,-2.12987 0.35498,-4.25973 0.19114,-2.12987 0.38228,-4.25974 h 2.2664 l -1.96603,19.49648 h -2.64869 l -2.15717,-8.95636 q -0.27306,-1.22877 -0.4642,-2.10257 -0.16384,-0.90109 -0.21845,-1.22877 h -0.0546 q -0.0273,0.32768 -0.19114,1.20147 -0.13653,0.87379 -0.4369,2.12987 l -2.07526,8.95636 z"
         style="font-style:normal;font-variant:normal;font-weight:normal;font-stretch:normal;font-family:monospace;-inkscape-font-specification:monospace;fill:#fafafa;fill-opacity:1;stroke-width:0.68265"
         id="path856" />
      <path
         d="m 243.73655,128.38861 q -1.55644,0 -3.03096,-0.27306 -1.44722,-0.30036 -2.32101,-0.73726 v -2.2664 q 1.01032,0.4369 2.45754,0.81918 1.44722,0.35498 2.94905,0.35498 4.20512,0 4.20512,-3.41325 0,-0.9284 -0.38228,-1.47452 -0.38229,-0.54612 -1.3653,-1.03763 -0.95571,-0.51881 -2.7033,-1.28338 -1.14685,-0.51882 -2.23909,-1.14685 -1.09224,-0.62804 -1.8022,-1.66567 -0.68265,-1.03763 -0.68265,-2.7306 0,-2.51215 1.66567,-3.85015 1.66567,-1.33799 4.5601,-1.33799 1.47453,0 2.78521,0.32767 1.31069,0.30037 2.29371,0.76457 l -0.79188,2.04795 q -0.9284,-0.4369 -2.07525,-0.68265 -1.14685,-0.27306 -2.2664,-0.27306 -1.58375,0 -2.62138,0.68265 -1.03762,0.68265 -1.03762,2.37562 0,0.95571 0.38228,1.55644 0.40959,0.60074 1.28338,1.06494 0.87379,0.43689 2.23909,1.03763 1.55645,0.65534 2.7306,1.33799 1.20147,0.65534 1.85681,1.63836 0.68265,0.98302 0.68265,2.67599 0,2.59407 -1.72028,4.04129 -1.69297,1.44721 -5.05161,1.44721 z"
         style="font-style:normal;font-variant:normal;font-weight:normal;font-stretch:normal;font-family:monospace;-inkscape-font-specification:monospace;fill:#fafafa;fill-opacity:1;stroke-width:0.68265"
         id="path858" />
    </g>
  </g>
</svg>
